Coordinates
version=1
nRows=26
nColumns=22
inDegrees=yes

Units are S.I. units (second, meters, Newtons, ...)
If the header above contains a line with 'inDegrees', this indicates whether rotational values are in degrees (yes) or radians (no).

endheader
time	pelvis_tilt	pelvis_list	pelvis_rotation	pelvis_tx	pelvis_ty	pelvis_tz	hip_flexion_r	hip_adduction_r	hip_rotation_r	knee_angle_r	ankle_angle_r	subtalar_angle_r	hip_flexion_l	hip_adduction_l	hip_rotation_l	knee_angle_l	ankle_angle_l	subtalar_angle_l	lumbar_extension	lumbar_bending	lumbar_rotation
      0.01000000	     -4.90857282	     -2.85241300	     -1.65762965	      0.14541300	      0.95613618	      1.15546092	      7.45697772	      2.96729708	     -3.97063588	    -12.01819106	     10.52195845	     -0.32320677	      6.94264061	     -5.22066281	    -10.93546502	    -13.50113238	      9.44829476	     -6.30307125	     -1.84475754	      0.93901862	     -0.45674488
      0.02000000	     -4.90740371	     -2.84169670	     -1.65968947	      0.14542104	      0.95613696	      1.15551180	      7.43711827	      2.96044261	     -3.95259094	    -11.98480840	     10.52495499	     -0.30789671	      6.93514435	     -5.21323458	    -10.95673822	    -13.49104307	      9.43416830	     -6.33924563	     -1.82688797	      0.92763938	     -0.46412815
      0.03000000	     -4.90141828	     -2.83930430	     -1.65753708	      0.14539406	      0.95613660	      1.15555758	      7.43292964	      2.96020378	     -3.95012124	    -11.98795953	     10.52488948	     -0.30701423	      6.93071788	     -5.21433940	    -10.95652168	    -13.49189277	      9.43297606	     -6.34142645	     -1.81641716	      0.92731635	     -0.46327746
      0.04000000	     -4.87853009	     -2.81596943	     -1.67472385	      0.14540620	      0.95617018	      1.15563442	      7.39404336	      2.94251431	     -3.89072555	    -11.96345584	     10.53907625	     -0.28311671	      6.87674329	     -5.18815656	    -10.96580899	    -13.44487040	      9.39443315	     -6.40537769	     -1.81772268	      0.90105135	     -0.44306502
      0.05000000	     -4.87127598	     -2.81341751	     -1.67138385	      0.14538404	      0.95616696	      1.15568475	      7.38819492	      2.94218939	     -3.88972306	    -11.96598724	     10.53949367	     -0.28286588	      6.87072010	     -5.18983653	    -10.96733379	    -13.44627055	      9.39453335	     -6.40637321	     -1.80179680	      0.90087245	     -0.44360662
      0.06000000	     -4.86860440	     -2.80361599	     -1.67152809	      0.14540949	      0.95616016	      1.15574120	      7.36732168	      2.93685334	     -3.87508012	    -11.93679517	     10.55342819	     -0.28129274	      6.84947833	     -5.18108546	    -10.98217040	    -13.41498981	      9.39789063	     -6.41454049	     -1.77030141	      0.89242678	     -0.45260403
      0.07000000	     -4.85923945	     -2.80036043	     -1.66800632	      0.14538678	      0.95615802	      1.15579158	      7.36030080	      2.93577072	     -3.87088206	    -11.94122956	     10.55372613	     -0.28112903	      6.84206676	     -5.18212859	    -10.98177897	    -13.41794180	      9.39699406	     -6.41503905	     -1.75352099	      0.89155350	     -0.45144151
      0.08000000	     -4.84802854	     -2.78144215	     -1.67893535	      0.14542017	      0.95616452	      1.15586571	      7.32817145	      2.92366206	     -3.81731684	    -11.90932111	     10.57671288	     -0.28010878	      6.80066346	     -5.16167980	    -10.98815968	    -13.37212484	      9.39194640	     -6.42195860	     -1.72812419	      0.87104730	     -0.45047576
      0.09000000	     -4.83717560	     -2.77848067	     -1.67590372	      0.14539569	      0.95616564	      1.15591467	      7.32089647	      2.92329141	     -3.81375298	    -11.91606620	     10.57643399	     -0.28007857	      6.79269015	     -5.16230466	    -10.98819540	    -13.37645258	      9.39044093	     -6.42215787	     -1.71132644	      0.87082548	     -0.44838382
      0.10000000	     -4.81082034	     -2.75884401	     -1.70214723	      0.14542352	      0.95619827	      1.15601115	      7.28402031	      2.91093304	     -3.74892435	    -11.90387113	     10.60283769	     -0.28208308	      6.72799073	     -5.14174066	    -11.01125656	    -13.32131846	      9.37526529	     -6.42801923	     -1.70473133	      0.85001644	     -0.43153107
      0.11000000	     -4.79961972	     -2.75617946	     -1.69980447	      0.14539769	      0.95620157	      1.15606769	      7.27672179	      2.91194348	     -3.74708742	    -11.91037631	     10.60213815	     -0.28215824	      6.72043411	     -5.14281830	    -11.01152556	    -13.32737615	      9.37407770	     -6.42822354	     -1.68760758	      0.84852931	     -0.42947346
      0.12000000	     -4.78861933	     -2.75349473	     -1.70004972	      0.14537618	      0.95620601	      1.15613305	      7.26905019	      2.91283892	     -3.74453283	    -11.91631807	     10.60243236	     -0.28236071	      6.71183557	     -5.14480687	    -11.01213120	    -13.33203595	      9.37318693	     -6.42850039	     -1.66914289	      0.84616067	     -0.42876931
      0.13000000	     -4.75823805	     -2.73927545	     -1.72849038	      0.14541007	      0.95624338	      1.15623675	      7.23038647	      2.90620820	     -3.68905683	    -11.90910682	     10.63476161	     -0.29019344	      6.64839805	     -5.13307819	    -11.06199733	    -13.28730376	      9.36683020	     -6.43571843	     -1.66632468	      0.83152431	     -0.40309850
      0.14000000	     -4.74680137	     -2.73726288	     -1.73033330	      0.14538909	      0.95625233	      1.15631273	      7.22361245	      2.90902776	     -3.68798534	    -11.91583916	     10.63354131	     -0.29031639	      6.64058926	     -5.13555311	    -11.06066829	    -13.29527721	      9.36561027	     -6.43580949	     -1.64889910	      0.82704187	     -0.40282313
      0.15000000	     -4.73563694	     -2.73545194	     -1.73186390	      0.14537231	      0.95626097	      1.15638781	      7.21659976	      2.91123994	     -3.68617281	    -11.92279980	     10.63314161	     -0.29054903	      6.63301800	     -5.13869957	    -11.06028889	    -13.30202945	      9.36467830	     -6.43595651	     -1.63173989	      0.82318746	     -0.40274146
      0.16000000	     -4.72470335	     -2.73406376	     -1.73382047	      0.14536018	      0.95627090	      1.15646484	      7.20982554	      2.91450515	     -3.68393785	    -11.92987074	     10.63342750	     -0.29086501	      6.62518609	     -5.14180336	    -11.06056602	    -13.30868814	      9.36396602	     -6.43616571	     -1.61511442	      0.81896683	     -0.40323686
      0.17000000	     -4.71386669	     -2.73306265	     -1.73648194	      0.14535384	      0.95628026	      1.15654449	      7.20301576	      2.91794935	     -3.68125782	    -11.93724104	     10.63428430	     -0.29127806	      6.61720424	     -5.14582101	    -11.06119046	    -13.31563476	      9.36345500	     -6.43646653	     -1.59909683	      0.81435523	     -0.40450132
      0.18000000	     -4.70324100	     -2.73241757	     -1.73977556	      0.14535307	      0.95629001	      1.15662580	      7.19615336	      2.92197102	     -3.67806626	    -11.94479051	     10.63570937	     -0.29180690	      6.60915230	     -5.15017037	    -11.06208064	    -13.32307781	      9.36318748	     -6.43689394	     -1.58418049	      0.80955549	     -0.40665158
      0.19000000	     -4.67080556	     -2.73778475	     -1.75230707	      0.14534225	      0.95632149	      1.15672318	      7.17113439	      2.93477753	     -3.63835136	    -11.96304153	     10.66300759	     -0.30090546	      6.58225305	     -5.16510246	    -11.09334782	    -13.34142930	      9.37083216	     -6.44402700	     -1.60128990	      0.81328781	     -0.41272216
      0.20000000	     -4.66203818	     -2.73684680	     -1.75526504	      0.14535912	      0.95632608	      1.15680316	      7.16353274	      2.93839846	     -3.63775798	    -11.96722535	     10.66268759	     -0.30131290	      6.57449360	     -5.16883111	    -11.09219332	    -13.34764298	      9.37097625	     -6.44444761	     -1.58455741	      0.80667125	     -0.41322661
      0.21000000	     -4.65336799	     -2.73584615	     -1.75694220	      0.14538412	      0.95632892	      1.15687744	      7.15514407	      2.94141118	     -3.63543628	    -11.97138650	     10.66304320	     -0.30182770	      6.56645380	     -5.17239521	    -11.09107910	    -13.35383049	      9.37153256	     -6.44500046	     -1.56857654	      0.80114855	     -0.41485428
      0.22000000	     -4.64465166	     -2.73484791	     -1.75703057	      0.14541993	      0.95632997	      1.15694679	      7.14517316	      2.94426905	     -3.63094048	    -11.97495312	     10.66420879	     -0.30246715	      6.55765545	     -5.17558586	    -11.08997501	    -13.35968808	      9.37268867	     -6.44573297	     -1.55251097	      0.79574555	     -0.41751936
      0.23000000	     -4.56647474	     -2.73396094	     -1.77138457	      0.14552955	      0.95643661	      1.15703163	      7.01874557	      2.95214606	     -3.55057027	    -11.91179307	     10.67990911	     -0.33246060	      6.44536715	     -5.17353739	    -11.09651761	    -13.32933621	      9.39044171	     -6.45912495	     -1.61416564	      0.79035488	     -0.40872648
      0.24000000	     -4.55983948	     -2.73288291	     -1.76459149	      0.14557835	      0.95642998	      1.15708721	      7.00982875	      2.95407920	     -3.54709865	    -11.91687792	     10.67967062	     -0.33277486	      6.43773254	     -5.17624476	    -11.09763981	    -13.33190110	      9.39049862	     -6.45932481	     -1.59661040	      0.78416089	     -0.41114661
      0.25000000	     -4.55270576	     -2.72160790	     -1.75794981	      0.14567395	      0.95642750	      1.15714462	      6.97114675	      2.94794022	     -3.50884766	    -11.87434783	     10.69499199	     -0.33689020	      6.41197998	     -5.16540504	    -11.10590689	    -13.30648929	      9.39914084	     -6.46234786	     -1.57378210	      0.76629659	     -0.44303459
      0.26000000	     -4.48846004	     -2.70825022	     -1.77156327	      0.14578046	      0.95651507	      1.15721612	      6.87165259	      2.94035582	     -3.43331942	    -11.83441492	     10.70086557	     -0.35312889	      6.30711715	     -5.14772491	    -11.11382656	    -13.25985637	      9.38481013	     -6.46327940	     -1.62172872	      0.74653035	     -0.42493869
